<svg viewBox="0 0 865.23 233.67" xmlns="http://www.w3.org/2000/svg"><circle cx="116.84" cy="116.84" fill="#fbf7f1" r="115.34"/><path d="m232.17 116.84c0 63.7-51.64 115.34-115.34 115.34s-115.33-51.64-115.33-115.34 51.64-115.34 115.34-115.34 115.34 51.64 115.34 115.34zm-32.92 67.21c-.74.42-1.36 1.41-1.69 2.29l-1.13-.94.11 3.86-.59-.67c-.34-.38-.95-.36-1.25.06-.47.65-1.01 1.3-1.5 1.43-1.29.34-3.59 1.25-4.87 1.47-1.48.26-3.67-.15-5.08.36-.17.06-.35.08-.52.03-.66-.18-1.59-.34-2.12-.21l-1.85.43c-.8.19-.84 1.3-.06 1.55l.38.12c.29.09.6 0 .82-.21 1.18-1.09 2.6-1.03 3.87-.13.25.18.59.17.85.01l1.54-.91c1.09-.64.99.77 1.16.5l-.74 1.18 3.47-1.29c.19-.07.41-.07.6.01l1.99.85c.2.08.43-.02.69-.21.56-.42 1.35 0 1.3.69l-.1 1.29c-.02.23.87.61.89.84l.16 1.52.5-1.14c.21-.47.8-.63 1.21-.32l1.1.82-1.82-2.78c-.28.08-.89.27-1.05.3s-.26-.47-.17-.6l.51-.77.64-.96c.13-.19.75.57 1.17.9 1.67-2.27-.62-3.86 1.14-4.76.26-.13.42-.41.42-.7v-3.9zm-56.35 37.87-5.68-.56c-.05-1.8-2.33-1.95-3.75-1.58l2.43.92c-.54.96-.94 1.7-.91 2.27h7.37zm-134.59-97.47c.53-.15.66-1.33.77-1.7 1.4-.27 2.6-.55 3.74-.94l-6.52-1.21v4.42l2.01-.58zm180.27-46.52c0-.74-.74-1.27-1.42-1-.51.2-1.07.31-1.63.37-.75.82-.45 1.03.99.62l-.65 1.03c-.17.28.61 1 .91 1.3l1.51-1.59c.19-.2.29-.46.29-.73zm3.75 10.65c-.71.94-1.87 1.28-3.05 1.41-.75.82-.45 1.03.99.62l-.65 1.03c-.17.28.61 1 .91 1.3l1.8-1.9zm-142.52 121.85.93-.1c.24-.03.36-.8.49-1.11l.54-1.34c.12-.28-.89-1.05-.82-1.36l.76-3.38.61 1.53 3.34-3.24 2.16-2.09c.08.2.34 1.22.56 1.06l1.09-.82.88 2.52 1.67-2.22c.16-.22.76-.62.91-.45l.74.8c.13-.55.27-1.77.66-1.81l1.6-.17c.07-.34.2-.8-.02-.83l-1.41-.22c-1.19.02-.69-.69.36-1.11.12-1.18.48-1.87 1.43-3.24l-3.47-1.26 1.26-.73c.22-.13.11-.96-.12-.91l-2.31.48s-.83-4.13-.51-4.12c.78.35 1.11.7 1.37.52l1.11-.76c.06.11.27.97.57.97h1.54c.77 0 2.11.22 2.07.82-.04.75-.54 2.03-.8 2.41.08.1 1.6 1.01 1.27 1.29l-1.32 1.14c.12.3.65.9.53 1.24l-.65 1.8c1.3-.66 2.2-1.83 2.2-3.31.81.86.98 2.16.41 2.94-.62.84-1.46.84-2.9 1.56l3.54.09-2.81 3.14 3.37-.32c.63-.06 1.97-.74 2.49-.4l1.82 1.2c2.12-4.43-2.79-5.31-.03-6.42.51-.58 1.39-.82 1.95-.32 1.29 1.17-.54 4.05 1.19 2.68l1.01-.8c-.27 1.83-1.37 2.36-3.23 2.34l1.96 1.51.32.93c.08.25 1.11.16 1.01-.08-1.08-2.6-.46-2.02 1.56-5.22.37.82.48 1.46.74 1.33l1.17-.58-2.51 4.08c.89.49 1.23.6 1.19.83l-.2 1.25 1.75-1.32c.35-.26 1.48.2 1.9.06l1.95-.62-1.78 1.91 2.49-.42 1.33 2.78-.07-1.97c-.01-.34.71-.68 1.22-.99l.57-1.28 5.01 1.18-1.38 3.13 1.9-.4c2.11-.45-1.6 2.35 1.73 4.56l-.98 1.11c-.18.2.58.9.8.75l1.09-.73c2.16-1.45 4.23-4.23 3.94-4.31l-.6-.17c-.12-.03-.7-.09-.77.01l-2.05 2.95c-.14.2-.71.43-.93.41-.15 0-.51-.36-.44-.48l.49-.78c.22-.35.87-1.28.69-1.64l-.8-1.61c.5-.07 1.29.08 1.4-.2l.6-1.48c-1.14-.06-2.53 0-4.14.13-.46-.07-.17-1.99.44-2.37.53-.33 1.67-.6 2.17-.32.2.31.47 1.04.59.89l.83-1.03c.91.29.56.15-.72-.31-.22-.93 1.03-2.73 2.21-2.83.86-.07 2.08-.02 2.29-.45l.94-1.94-3.65-.1.18-2.47 5.2.38c.12-.29-.12-1.64-.51-2.13-3.5-4.46-6.06-8.82-8.07-14.37l-20.09-.09c-.66-2.84-.8-5.07-.82-7.78l-3.49-.14 1.67-1.38-.2-8.83c-.03-1.52-.31-2.64.44-4.02 1.55 4.98.24 9.95 1.16 13.75l9.28.19c.58.01 1.68.27 2.66.4l-.92-6.41.5-.97c.09-.18-.74-1-.74-1.23l.1-8.62c.28.36.8 1.45.83 1.93l.58 8.17c.16 2.27.41 4.24.97 6.68l1.78-1.33-.27-.97c-.05-.18.73-.41.78-.23l.23.93c.13.52.12 1.72.58 1.69l2.21-.1c-1.37-5.83-2.07-14.92-.59-21.12.5-2.11 1.1-4.03 1.43-6.21.64-4.21 2.93-8.06 4.53-12.04.46-1.14.85-2.03 1.42-2.85l-1.29-.94c1.01-.13 3.23-.08 3.76-.79l3.32-4.38-2.26-.93 7.52 1.14 3.55-3.48-1.45-1.8c.67-.77 6.94.62 6.35-2.27l-.39-1.9c-.27-1.3 4.39-1.02 5.7-.15-.43.86-1.69 1.82-2.29 1.67s-1.2-1.06-1.97-1.99c-.07.05-.39 1.32-.1 1.57l1.38 1.23-2.33 1.32c-10.79 6.14-19.48 30.15-18.1 46.82.99 12 5.55 22.93 13.06 32.01 1.4 1.69 2.75 1.4 4.53 1.27 6.2-.42 10.9.79 13.86-2.33 3.45 1.58 1.11.44 6.68.45h5.89s-6.9-19.97-6.9-19.97c.22-1.15.51-2.27 1.03-3.9 1.3 3.07 2.15 5.14 3 7.87l4.29 13.82c.38 1.22 1.06 2.85 2.16 2.34.17-.08.99-.69.86-.61s-.86-.57-.98-.92l-7.73-21.93c-.8-2.28-.99-3.78.17-5.55l8.73 25.96c.31.92 1.81 2.14 3.07 2.95l-1.08-3.62c-2.34-7.86-5.86-15.18-7.65-23.44 3.16 7.33 5.45 14.64 8.07 22.12.74 2.12 1.09 4.5 2.9 6.09l11.72-.3c.27 0 .94.17 1.11.18s.46-.53.3-.61l-.92-.49c-.06.05.56-.92.72-.74s.57.67.74.89l.77 1.03c.11.15.59-.19.6-.38l.06-1.12c.03-.5-.12-1.67.24-1.86l1.51-.8.24-1.53 3.81-.26.2-3.52-1.9 2.13c-1.44-2.54 1.17-2.41 3.22-7.81 2.46-6.47 3.34-8.27 4.63-15.03.94 0 1.81-.24 2.74-.9 4.29-3.02 2.75.3 4.54-2.71l-1.5.1c-.91.06.97-2.19-1.75-4.35l4.02-1.08c-.59-1.21-1.16-1.57-2.11-1.86l-5.34-1.6c-.43-5.04-1.69-10.02-2.98-15.04-1.7-6.61-5.57-13.23-10.47-18.4-.45-2.68-.02-6.02.06-8.81l.13-4.33.17-4.5.21-7.6.04-4.33.29-7.41c.21-5.33.33-10.53.93-15.6.23-1.96-1.41-3.36-3.17-4.82l-7.89-6.53c-3.02.99-6.05 1.26-9.23-.4 3.93-.94 5.42.84 9.17.14l-10.47-9.65-9.36-8.39c-1.12-1.01-10.32-9.05-10.21-9.1l-1.93.93 1.91 1.26c-1.2.69-6.28-.7-6.74-.91s-.12-1.74.02-2.06l.51 1.41c.08.23.76-.32 1.46-.61.35-.36.05.2-.49 1.02 2.8.93.26-1.42 4.75-1.45l-3.37-3.26c-.29.86-.53 2.01-1.04 2.24-.44.2-1.83.33-1.95-.15l-.51-1.88c-.67 1.23-1.03 2.11-1.64 2.09-.73-.02-1.34-.01-1.67.04s-.1 1.4.24 1.37l1.11-.09c.25-.02 1.56-.18 1.35-.04s-.46 1.15-.71 1.17l-3.82.43 1.05 1c.1.1-.31.58-.45.54-2.57-.76-1.67-1.02-5.4.56 2.02.4 4.05.65 6.31.79l15.69.97c-1.05 1.62-2.72 1.33-4.14 1.09-3.68-.62-7.21-.79-10.71-1-2.01-.12-8.74-1.19-9.18 1.51l5.49.73c.72.1 1.65-.11 2.36.22l1.39.67c.15.07 0 .35-.13.59l-5.92-.79c-2.58-.34-4.77-.5-6.97 1.54l5.31 1c-3.01.81-5.2.18-7.73.09l.08-1.2-1.68 2.12 7.56 1.24c-3.81.62-7.16.04-10.55 1.59l5.98.58 5.44.53c1.94.19 3.79-.29 5.71.79-2.74-.02-5.07-.17-7.68-.39-3.91-.33-7.69-.13-11.68-.09h-1.13c-.25.01-.56.68-.32.75.16.05 1.02.39 1.21.4l8.16.26c1.83.06 3.23.25 5.14.68-2.13 1.35-3.89.42-5.87.24-3.69-.32-7.19-.1-10.85 1.17 2.46.94 5.11.57 7.92.84l4.45.43c6.09.58 11.77.88 17.93 1.15-.72 2.11-8.45.18-12.89.07-1.88-.05-3.38-.17-5.34-.46-1.85-.27-11.81-.72-11.93-.61l-1.36 1.21c-.16-.25-.69-1.36-.83-1.12l-.59.97c-.17.28-.63.74-.49.9l.88.97-7.59 2.18c-1.44.41-2.39.73-2.79 2.65l2.3-1.44c2.08.27 3.97.6 6.04 1.25-2.48.95-4.21.28-6.23 1.83l13.53.3c.78 1.02.15.91-.75.57-2.38.23-4.73.32-7.12.19l-3.98-.23-4.35-.16c-.32.45-.6 1.06-.94 1.16l-1.95.61 4.2.21 6.5.71c.25-.06-.52 1.11-.81 1.01l-1.09-.37c-1.03.23-2.22.36-3.38.07-3.44-.85-7.15.49-10.24 1.56-1-.57-2.42-1.68-3.17-1.3-.88.45-1.46 1.63-1.47 2.74l-.04 48.61c0 3.51-.61 6.87-.42 10.16l1.82.82-1.79.62c-.26.09.48 1.13.48 1.54v23.87c.56.17.92.15.91.37s-.11 1.07-.1 1.3l.3 6.99.26 3.91.35 4.86.62 8.53 2.24 1.33-5.63-.28 2.05.65c.4.13.48 1.1.52 1.79.03.62-1.26 2.05-1.78 1.7-.45-.3-1.13-1.08-1.45-1.54l-2.05 2.26-2.45-1.85c.07-.34.39-1.4.07-1.54l-1.26-.55.4 1.8-1.95 4.71-1.67-2.32c-.36-.5.15-1.98.13-2.73-3.24 4.59.65 4.3.62 7.02 0 .64-1.63 1.21-2.04 1.71l-2.23 2.68c-.09-2.06.44-3.42 1.68-4.45l-1.59.28c-.26.05-.21-.87-.31-1.71.1-.06-.41.25-.63.38-.14.08-.2.82-.3.95l-.69.95c-.11.16-.77-.02-.75-.22l.15-1.58s.64.74.54.62l1.6-2.04-2.33-1.29c.78-.49 1.24-.66 1.31-.95.79-3.31 1.24-2.83.63-3.79-1.21.11-1.95.1-2.84-.04l1.02-1.23c.12-.14-.4-.75-.51-.78l-2.12 1.38.35-.94c.09-.25.18-.4.01-.36l-1 .21c-.75.07-1.65.07-.7-.19l.95-.82c.16-.13-.05-.81-.24-.75l-1.02.32c-.8.08-1.5.03-.75-.36.5-.64.95-.97.83-1.13l-.73-.93 1.45-1.15c.73-.58-2.54-2.04-1.84-3.56.18-.4 1.45-.85 1.48-1.28l.18-2.51-1.3 1.04c-.22.18-.61-.39-1.34-.89-.65.53.43 6.07 1.1 6.42-1.02.61-2.43 1.56-3.26 2.19l.69 1.29 1.33-2.08c.39.23.67 1.88.26 2.12l-1.42.8c-.09.88-.39 1.7-1.26 2.06-.67.28-1.58-.36-1.88-1.15-.19-.49-1.8-.02-2 .47s-.36 1.73-.21 1.66l1.72-.25c.17-.03.44.48.34.62l-.61.87c.61 1.62-.46 4.96-3.17 4.61l1.83-1.64c-1.53-.57-2.18-1.44-2.23-2.91-.02-.77-.09-1.23.1-1.5 2.79-3.95-.68.33 1.88-3.4l-1.23-1.44 3.4-1.41-.54-1.01c-.08-.15-.16-.13-.26-.01-1.83 1.98-3.13.24-3.08 1.97l.07 2.38-1.53 3.93c-.63.88-2.59 2-3.84 2.5l.78-1.75c.15-.34-.61-.95-.74-1.23.68-.33 1.44-.9 1.53-.64l.51 1.43 1.12-3.57 1.61-.44c-.62-.57-1.05-.84-1.12-1.13l-.26-1.04c-1.86.91-1.01 5.4-1.7 3.94l-.52-1.1-1.92 1.25c.65-1.03 1.33-1.91 1.92-2.6.41-.49-.96-1.85-1.57-1.7s-1.38 1.14-2.03 1.95c-1.43-.65-1.87-3-1.23-4.69-.83-.68-2.33-1-3.54-.79.36-1.6.56-4.49.51-6.28 0-.14-.44.45-.56.52l-1.11.61c-.35-1.46.14-2.82 1.02-4.37-1.28-1.18-1.93 2.75-3.63 4.43l2.18.58-2.01 4.31c-.12-.08-.51-.39-.47-.58l.25-1.05c-.55.13-1.43.52-1.4.19l.11-1.45c-.23-.64-.55-1.05-.41-1.38l.78-1.77c-.66.28-1.45.97-1.93 1.76-.44.73-.24 1.59.27 2.48l-1.5 1.85-1.2-2.76c-.11-.25-.88-.43-1.15-.39-.18.03-.34.5-.23.65l.52.74c-.64 1.49-1.21 4.02-.71 5.71l.8 2.66c.46-.58.87-1.3 1.29-1.29 4.34.11 2.01-1.25 3.95-.65.72.22 1.07.97 1.64 2.25-.3 1.18.11.46.48-.42l.86-.93c.16-.18.66.24.67.48l.04.85c.05 1.08-.33 2.5-1.41 2.95-.83.34-1.73-.17-2.74-.8v1.12c.03 1.61-.63-2.04-1.39-1.2-2.38 2.61 1.5 1.48 2.98 2.64l2.78-1.15c2.32 8.47-.83 2.04 1.68 10.59.28 0 1.66-1.2 1.53-1.82s-.62-2.05-.15-2.19l1.83-.57-.82 2.36c.89 2 1.8 4.52-.25 5.72l.75.78-.47-.85 1.17 1.22-.34.58s2.63 3.08 5.52 5.8 7.26 6.48 7.26 6.48l.19-.74.33-1.25c.06-.21.84-.29.93-.08l1.22 2.77c1.44-.92 1.89-2.39 1.03-3.71l1.95-.63.89.93c.15.16-.49.62-.81.97l.93.38c.16.07-.26.76-.37.93l-.41.66c-.07.11-.55.24-.55.11l.02-1.14-1.42.93c-.38.25.61 1.39.74 1.76-.14.29-1.19.76-1.35.45 0 0 1.02 1.07 1.35 1.31s1.35.7 1.35.7zm82.31-173.29c1.64-.04 3.15.05 4.96.24l4.53.47c.4.91-9.53.54-9.48-.7zm10.93 8.11-.28-1.37c-.06-.3-.68-.39-1.36-.66l1.69-1.21-1.63-2.38 2.24-.44c.16-.03.85.56.69.61l-1.38.42 1.62.55-1.46 2.44 1.98.33-2.12 1.71zm-23.62-.05c-2.15.04-4.32-.5-6.59-1.28 1.17-1.21 2.53-1.16 3.72 0l9.03.81c-2.05 1.37-4.08.38-6.16.46zm31.39 1.94-6.43-1.12c3.34-.16 6.72.08 10.38.53-.97.26-2.93.77-3.95.59zm6.18 3.9-9.43-1.57c-1.08-.18-2.29 1.19-2.66-.72l8.32.47c2.02.11 3.72.36 5.51.72-.4.41-1.37 1.17-1.74 1.1zm-33.78 9.11c-2.02-3.38-6.21 1-6.43-2.45 2.76.35 6.89.65 9.07.41.31-.03.58-1.55.89-1.53l1.49.08-1.05-1.44c1.79.16 2.55 1.56 2.84 3.36l9.47.18c.12.47-.86 1.5-1.36 1.49l-7.21-.25c-.79-.66-1.77-1.3-2.69-1.5l.76 1.55zm31.43-.51 8.39.18-2.46-1.29-2.45-1.28 6.38-.02c1.54 0 2.89 1.46 3.06 2.73l-2.55.39c1.9 1.03 4.09-.93 5.82 1.74l-8.29-.85c-4.13-.42-6.82.81-7.92-1.6zm-50.67.65 6.89-.02c-1.93 2.57-4.65 1.53-6.89.02zm35.63 2.07c-.08.12.13.36.35.85l-6.85-.47-6.41-.51c-4.06-.32-10.68.85-13.84-1.92l2.63.43 4.39.26 8.81.28 6.84.5 4.26.24c.19-.4-.09.22-.18.35zm-53.26 1.03c-1.85.12-4.77-1.25-6.77-.74l-1.08-.91 7.21.46c.84.05 1.55.03 2.29.12l5.28.62-6.92.46zm73.34.31c-8.68 0-10.83-.82-19.44-.5.76-2.17 2.66-.68 4.18-.64l6.25.16c2.75.07 5.2 0 8.01.24 3.73.32 8.83-.96 11.35.95-3.41.19-6.77-.21-10.34-.21zm-6.02 2.58c-1.83 0-3.84.14-5.74.11l-6.86-.11c-1.19-.02-13.38-.9-14.18-1.02-1.42-.22-2.42-.42-3.84-.4-2.96.05-5.84-.42-8.87-.52l-5.01-.16c-1.6-.05-3.99.4-5.42.16l-6.56-1.08c2.35-.16 4.81-.14 7.37-.05l3.99.15 10.36.59 9.75.43 7.78.39 15.36.43 6.28.46c3.86.28 7.54-.59 11.45.64l-4.63.5c-1.06.12-3.21-.49-4.56-.49l-6.68-.04zm18.25-1.19-.08 5.67c-2.75-1.86-1.5-4.18.08-5.67zm-84.85 1.32c-1.26 0-2.42.33-3.17-.72 3.27-.3 6.07-.21 8.96.72zm48.57 13.42c-1.74.72-2.92-.62-3.39-2.6-.2-.47-.38-.18-.85 1.02-.5-.59-1.17-1.51-1.35-2.21-.22-.85.78-2.48 1.54-2.42 1.02.08 2.39-.34 2.58-.88l-4.48-.11-.14 4.23v4.73s-8.4-.33-8.4-.33c-.73-.03-1.53-.88-2.1-1.94-.38 2.41-2.73 1.87-4.71 1.68l-4.27-.41-.06-9.24 14.65.77s-.02-1.45-.03-1.81c-1.05-.55-1.7-1.24-2.11-2.08-2.09-.02-5.15 1.41-7.09-1.14l9.84.25.15 4.45 10.45.26c-.05.65-.38 1.46-.1 1.61l1.49.75c.44.22 1.66.42 2.03.12s.34-1.21-.03-2.08l3.92.65 3.39-.65c.19.6.43 1.27.73 1.52 2.14 1.78-.2 1.82-.14 6.89l-.52-2.06-.41 1.16c-.26.72.29.24-.87-.48l-3.06.73-1.57-2.87c-.1-.6-.12-.89-.22-1.18s-1.12-.89-1.27-.62l-.78 1.48c-.25.48-.19 1.7-.15 2.5-.6-.08-1.91 0-2.66.32zm28.55-8.91c.05-.26.8-.96.66-1.29l-.71-1.56c2.15 1.4 7.93.66 5.06 2.08-1.51-.31-3.13 0-5.01.77zm-5.73-1.4-7.99.1c-1.97.03-4.04-.34-6.12-.96 3.67-.23 7.36-.23 11.13.03l8.48.57c-1.79 1.23-3.71.86-5.5.25zm-69.72.99h9.45c-1.62 1.95-8.43 1.62-9.45 0zm-4.75 3.99-7.26-.17c-.09-.2-.24-1.47.07-1.42.41.06 1.54.35 2.02.37l10.03.24c1.18.03 2.6.4 4.47.8-2.91.98-5.99.26-9.32.18zm81.55.57-6.99-1.69 9.88.05c.58 0 1.41 1.57 1.01 1.54l-3.9.11zm-70.72-.94 4.39.02 3.95.02c-1.57 2.09-7.2.57-8.33-.04zm2.81 2.53 3.35-.47 7.34 1.12c-3.65 1.03-7.03.51-10.69-.66zm66.42 1.65.99.93-2.12.1c-.51.02-.92-1.02-1.38-1.51l-4.64.51c-.33.04-.27-1.57.06-1.54l1.72.17c7.32.73 3.05-.4 10.68.39l.04 2.96-1.04-1.64c-.23-.37-1.32.27-1.86.24-.57-.03-1.6-.42-2.45-.61zm-75.65 3.83-7.98-.55 2.61-.52-2.05-.65c6.93-.68 10.21 1.23 18.28 1.02-.89.36-2.69 1.07-3.61 1.03l-7.24-.33zm31.56 15.79c-.08-2.21.12-5.54.31-7.56.1-1.05-.98-3.58-.17-4.03 1.5-.21 2.84-.42 3.07-.8-1.49-.41-2.69-.69-3.1-1.25-.51-.7-.17-2.3.53-2.26l9.59.35 8.17.48.4 7.33.66-6.61c.43-.82 2.52-1.08 3.47-.98l4.84.5-.24 2.31 1.72-2.62-.23 4.31c-.01.21-.55 1.04-.67 1.22s.49.12 1.11.18c.29 2.74 0 5.46-.61 8.09.67-.9.4 9.32.19 8.64-2.93-.43-5.07-.36-7.54-.05l-2.19-1.44.99-2.76 3.51-.18c.21-.01.71.06.92.08s.19-.52.21-.73c.07-.88-3.38 1.07-5.66-1.62-.3 1.03-.76 1.94-1.38 2.69l.25 3.34c.01.16.99.3 1.13.38.15.09.19.26.07.36-.13.11-.71.43-.88.46l-3.32.55 1.07-1.8c-.84.1-1.41.36-1.49.03l-.33-1.51-2.19.28-.21-2.38c-.03-.31-1.49.12-1.47.44l.17 4-5.37 1.64-.05-4.59-4.64-.69c-1.24.06-.87-.5.04-.76 2.52.06 4.7-.09 6.58-1.02-2.82-2.14-2.1.83-7.25-2.03zm-37.71-13.21-4.71-.9c4.5.01 8.62.26 12.85.57-4.91 1.41-2.89 1.34-8.14.33zm86.83-.26c.34.01.31 1.25-.11 1.32-8.26 1.4-9.76-1.73-16.52.24-.2-.32-.89-1.68-.48-1.77.44-.1 1.55-.31 2.03-.29l4.63.15 9.23.31zm-68.28 1.06-7.63-.58c-.21 1.2-1.5.6-2.34-.73l8.92.38 7.46.23c.19 0 .8.63.98.69.26.08-1.02 1.19-1.33 1.13zm-20.63 1.79 6.79-.13c-2.11 2.01-4.19 1.52-6.79.13zm15 .46c3.26-.17 5.88-.09 9.07.51-.21 1.37-9.69.59-9.07-.51zm61.54 1.4-5.41-.37s.54.36.69.46c.18.12-.04.39-.22.7-.11.2-.6-.21-.82-.41l-.67-.63c-.11-.1.74-.74 1.11-.74l17.36-.03.15 1.83c-1.22-1.15-2.18-.37-3.69-.44l-8.52-.38zm-40.5 13.08c-1.38-.71-3.73-.16-4.75.62-.53.4-.57 2.29-.29 2.3 1.16-.06 1.92.03 2.22.45.42.59.73 1.95.21 2.03-.78.12-2.16.07-2.44.47l-1.39 2.01-.32-8.2c-.02-.41 0-1.41.3-1.53l1.74-.69-2.04-.86.86-5.19c.04-.23.97-1.08 1.15-.93l1.31 1.07.56-3.54 5.79.49.03 7.51-2.3.07-4.45 1.62 5.46.56 1.87-2-.74 3.24c-.43.23-1.55.72-1.67 1.22l-.41 1.78c-.1.43-1.94-.16-1.81-.48l1.12-2.02zm-19.09-10.54c-1.58-.35-3.21.57-4.69-.98 3.43 0 6.29.24 10.16.62-1.26 1.3-3.54.79-5.46.37zm57.03.64c-1.3-.02-2.41.17-3.71-1.01l4.34.14 13.45.14c.67-1.09.78-1.1.56-.28l.19 1.49c.02.15-.2.09-.35 0s-.73-.49-.9-.47c-2.45.28-7.04.13-9.79.08l-3.77-.07zm-70.01 2.74c-.19 0-.93-.33-1.09-.38-3.46-1.1 11.14-.72 11.47-.66.17.03.22.46.07.53-.23.12-.83.3-1.17.3l-9.27.2zm84.04 1.26c-.22-.18-1.05.42-1.32.35-5.57-1.47-5.72.17-8.3-2.01 2.83-.25 5.5-.15 8.47.32l1.52.24c.41.06.41 1.15.4 1.75zm-9.61 2.27c1.56-1.38 10.12-.04 10-.39l.46 1.38c-2.73-1.86-5.52 1.45-10.46-.99zm-70.36 4.1c-.43.16-1.12-.76-1.53-.98-1.48-.59-2.92-.16-4.42-1.61l8.18-.18-1.17.86c-.24.18-.2.24.4 1.35.16-.06-.98.37-1.46.56zm11.14-.64-5.11-.14-1.5-1.97h13.36s-.71.76-.71.76c-.14.15.36.69.52 1-2.03 2.61-3.17-2.1-6.56.35zm69.25 2.31c.33-.46-.02-2.24-.6-2.1l-2.53.59c-1.29-2.23-3.31-.54-5.11-.2s-5.54.23-7.36.2c-.24 0-.79-.83-.93-1.02-.19-.26.73-.22 1.2-.24l15.59-.46c.44 1.69.5 3.79.05 5.7-2.34-3.65-4.27.05-9.92-1.08-.25-.85-.31-1.09-.47-.95-2.04 1.73-3.85.96-7.75.92.92-2.09 2.79-1.47 4.4-1.46l13.45.1zm-78.01-.31-1.23.07c-.28.02-.76-1.07-.48-1.1.3-.03 1.17-.11 1.49-.09l6.01.3 8.19.32c-5.22 1.6-6.83.07-13.99.5zm25.54 3.25 2.29.88-.54-2.72 1.23.45c.7.25-.77 2.99.42 4.21l-1 .63c-.19.12-.37-.66-.57-.92l-1.85-2.51zm-13.11-.16c-1.4 0-2.99.09-4.2-.02l-6.34-.57c1.76-1.09 3.89-.41 5.76-.47l6.72-.2-1.93 1.27zm-13.81 5.52c-1.29-.17-2.93.91-4.62.34-.92-.31-1.98-.14-3.47.06 0-.61 1.23-1.47 2.25-1.44l10.22.31 9.14.5c-2.77.67-5.42 1.3-8.75.86l-4.76-.63zm55.05 20.66-2.62 7.72c-1.52-1.98-1.48-3.27-1.34-5.35l.61-9.45c.02-.29-.33-1.25-.4-1.51-.1-.35 1.15-.77 1.29-.55l.45 3.61 1.48.56c.23.09.03-.99.11-1.23l1.41-3.89c.56-1.53 2.44-3.85 1.97-5.52-.95-3.33-11.1-2.02-14.73-1.91.99-1.13 2.81-1.3 4.2-1.62 5.56-1.28 15.44-2.38 19.67 1.75l-6.19 17.69-3.99 11.52c-.29-.51-.72-1.05-.59-1.25l.95-1.49h-1.55c-.37-.02-.53 1.3-.7 1.63l-.66 1.29c-.14.26-.83-.63-1.14-.98l4.89-13.9 4.47-13.13-1.75-.7-1.27 3.71-4.58 12.99zm-67.3-18.05c3.45-.12 6.12-.13 9.93.07-.33.79-9.41 1.15-9.93-.07zm86.72 11.88 2.22 4.48 1.8 3.81c.07.15.91.39 1.05.47.15.09.12.26.03.39-2.39 3.44-4.58-8.88-8.66-9.61-.95 4.85.52 6.53-.11 9.94l-3.9-5.21-2.55 1.38 2.27-6.63c2 .31 3.15.33 5.14.1-1.48-1.87-2.17-2.33-3.94-3.19l1.69-6.89 6.67 5.17c2.55 1.97 5.32 5.2 6.85 8.25l3.15 6.25c1.42 2.83 2.32 7.09 2.48 10.19l.39 7.48c.49 9.41.75 4.11-2.2 14.99-2.29-3.66-3.54-1.4-4.49-4.14-.48-1.4 1.36-.38 2.13-3.48.1-.4-.71-.59-1.45-1 1.29-6.02.76-11.74-1.02-17.87l4.61-2.74-1.15-3.03-6.33 3.23c.57-1.47 1.06-1.64 2.08-2.49-4.06-4.25-3.5-8.02-6.75-9.83zm-81.34-5.19-1.84-1.63c-.45-.39-1.65.61-2.46.88-1.05.35-3.05-1.03-3.79-1.85.31-.44.67-.77.57-.96l-.58-1.02c-.19-.33 1.19.51 1.62.52l14.74.35-2.93 2.54c-1.93-.18-4 .1-5.33 1.17zm38.25 15.42-1.26.33c-.55.15-1.75.34-1.56.69l.95 1.74c.14 0-.8.02-1.31.03v-6.88s.87 1.07.87 1.07l.33-1.99 5.66.67c.03.09-.19 1.01-.46 1.04l-1.58.15c-1.39.13-2.52.31-4.27.76l10 .65c-.82-2.02-.99.29-3.25-1.61-.76-.64 2.33-1.17 2.02-1.4l-.69-.53c-1.07.21-2.38.02-3.55-.47.46-.6.8-1.23 1.18-1.19l2.04.24c.3-3.52-2.55.32-5.18-2.63-.16-.18-1.47-.19-1.39-.42.1-.32.33-1.02.28-.88 2.51 1.24 1.97-.37 5.39.97.06-.54-.73-2.26-1.5-2.53-.83-.3-1.97.62-3.45 1.18l7.89-8.06 2.71 5.67c1.21-1.34.65.03-.33-2.1-.1-.21.48-.65.67-.52s.74.68.86 1.03l5.36 15.31.54 1.36c.14.35-.79.64-1.53.98l.95 4.68 1.65-1.97 3.51 8.21c-.92.06-1.26-.34-1.57-1.16-2.23.55-4.23-1.08-4.97-3.3l-2.22-6.6c-.84-2.5-1.97-4.8-3.24-7.1.78 3 1.86 5.65 2.81 8.53l2.17 6.61c-1.45-.35-4.04-1.47-4.58-2.96l-1.82-5.07-3.25.26c-.4.03-.36-1.95.04-1.92l1.8.14.95.07c.21.02.6-.54.41-.63-.28-.14-1.25-.53-1.52-.47-6.13 1.37-3.35-.91-7.08-1.26.45.9.77 1.19.53 1.26zm37.6 3.2-3.92-.54c-.08.06.46-.34.57-.42.1-.08.14-.14.06-.22l-.98-.86c1.99 0 3.95 0 6.02.7 3.13 1.08 4.72-4.67 6.36-1.76l-6.63 3.48-3.87 2.19c-.19.11-1.18.03-1.39.04-.33 0-.03-1.28.3-1.27.9.03 3.03-.16 3.48-1.33zm-10.27 9.83c3.97-2.88 8.04-4.96 12.22-7.29l6.87-4 .89.75-5.22 2.67c-5.08 2.6-9.29 5.92-14.78 7.86zm-19.66 6.03.81-.87c.23-.25-.43-1.19-.77-1.34l-9.36-4.12c-.55-.24-1.52.83-1.93 1.36l.24-1.93-3.23-1.51c-.95-.44-3.45-1.19-3.37-2.23l1.9-4.44c3.08 1.59 6.25 3.06 9.5 4.52l4.43 1.99 12.43 5.74c-.25.64-.39 1.13-.62 2.13l-4.38 2.36.64-2.05c.16-.5-.38-2.02-.51-1.9-.09 1.12-5.48 3.79-5.78 2.3zm41-.23c-.03-2.8-.81-6.17.12-8.74l.99-2.74s.63.96.86 1.31-.5 1.29-.48 1.74l.24 5.69c.16 3.97-.21 7.45-1.09 11.28-2.75-1.58-.58-2.54-.64-8.54zm-79.87.21.21-3.78c.03-.6 0-.76.58-1.7.54 1.59.71 3.19.74 4.83l-1.53.64zm22.22 9.63c-.44-.03-1.04-1.35-1.08-2.11l-.4-7.53 6.61.16c.69 1.02 1.22 3 .98 3.97l-.26 1.06c-.06.26.61.53 1.3.96l-7.16 3.5zm57.76 5.89-1.84-1.31-2.34 5.71c-.96 2.34-2.66 4.41-4.1 6.47l-.73-.93c1.73-2.45 3.09-4.89 4.31-7.64l1.33-3.01-16.69-7.41c-1.98-4.02-.41-3.91-1.93-6.26l18.6 8.73c3.09 1.45 6.02 2.66 9.03 4.37l-.9 4.01c-4.37 7.92-4.45 7.37-10.66 13.63-1.08 1.08-2.79 2.06-3.97 2.69l-.83-.92c-.18-.2.5-.69.75-.94l6.04-6.23 3.52-5.77c.18-.29.72-1.03.51-1.19l-1.52-1.21c.04-.4.87-1.85 1.43-2.77zm-41.83 18.89c-.14-.1-.91-.52-.82-.77l.46-1.24 6.36-18.22 1.57-4.84 1.79-5.32 5.02-2.54-2.41 6.95-7.01 20.63 1.4-8.58 2.33-3.43-2.41-.28c-1.8 4.94-3.53 10.04-5.15 15.29-.18.57-.75 1.57-1.13 2.35zm34.78-30.49c-1.45-.38-3.04-.87-4.6-1.51 1.28-.49 3.6-.46 4.67-.25.4.08.18 1.47-.07 1.76zm-49.44 8.85c-8.95 3.31 19.59-11.76 17.92-9.64-5.21 3.41-12.48 6.79-17.92 9.64zm10.04 18.62 5.77-16.17 2.81-8.51 3.16-1.44-2.85 7.82-1.93 5.38-2.1 6.29-2.86 8.48-1.99-1.84zm-1.64-15.64c-.05 1.19-.3 1.82.24 2.83l.31-5.86c-1.56.23-1.9 1.11-2.31 2.53-.23-.34-.31-2.28.3-2.51l2.37-.9c.15 1.55.33 2.68.29 3.39l-.24 4.33-2.53-.62.42-1.97c.07-.34-.61-.58-1.31-1.13l2.44-.09zm-8.25.73 4.32-2.38.72 4.9c-2.69.96-4.04-.44-5.04-2.52zm-67.98 9.43c-.04.53-2.07-.11-2.36-.47l3.74-5.84v1.79c0 .33.33.66.88 1.49l-2.05.47-.2 2.56zm6.08 2.21c1.24-.63.47-2.59.03-2.58s-1.44.53-1.86.87l-1.81 1.48.96-2.35c-.09-.5 0-1.61.4-1.78s1.12-.14 1.54-.06c.34.07 1.27-.89 1.41-.56l.83 1.92c.13.3.98.72 1.25.92-.12-.09-.73 4.1-2.53 5.04l-2.35-1.8 2.13-1.09zm-13.63 1.97-1.87-.63c-.4-.14-.05-1.42.06-1.7l-2.41-.31 2.91-2.35c.3.28.74.91.91.78l1.26-.93.44 1.01c.37.86-2.13 1.2-2.09 1.41.68 3.29.8.3 2.79 4.9l-1.66.21c-.1-1.22.04-2.25-.35-2.38zm37.87-4.03c.52.56 1.44 1.54 1.44 2.04s-.5 1.15-1.11 2c-1.84-.8-1.23-2.89-.34-4.04zm-34.54 4.46 2.53-1.85.37-.93c.12-.31 1.57 0 1.39.11l-2.09 4.1-2.2-1.44zm-6.85 6.83c-.09-.03-.28-1.57.07-1.78l1.87-1.16-1.39-.7.33-2.25-.92.56c-.24.15-1.03-.29-1.05-.43.7-1.3 2.11-1.91 3.71-.99l-.91 3.41 1.38-.95c.21-.14.75.47.72.73l-.16 1.15-.61-.9c-.08-.12-.5.27-.49.41l.08.97-2.61 1.93zm44.46-1.45 1.35-1.14-1.83-.39c-.91 1.46-2.74 2.94-3.83 2.31-.14-.08-.6-.47-.46-.56l1.34-.82c-.15-.45-.64-1.73-.92-2.33s-1.94-.5-3.03-.8c1.58-1.13 4.93-1.81 7.19-1l4.05 1.44.88 1.22.03 4.25-2.06-2.16-1.22 2.3c-.13.23-.88.57-1.13.63-.8.17-.58-2.76-.35-2.96zm-25.99 7.94.95-2.13-8.4 4.64c-.91-.5-1.97-1.33-2.74-2l-.6 1.18c-.11.21-.71-.04-.73-.27s.04-.91 0-1.15l-.61-3.09c-.17-.12-1.28-.56-1.09-.81l1.04-1.37-3.49.86c-.41-1.25-.4-2.97.31-3l1.23-.05c.27-.01 0-1.09.03-1.35.67-.64 2.79-.96 3.54.97l-2.57-.12c-.32 1.08 1.21 2.5 2.51 2.84l.59 3.4c.24-.85.39-1.85.39-2.76.07-1.13 2.5 1.02 2.87.53l1.01-1.35c1.14 2.36 4.22 2.78 4.05 2.9l1.03-.68c.5-.33 1.43-1.2 1.9-1.02.56.2 1.67 1.16 1.95 1.56l-3.16 2.28zm43.87-5.6-.59-1.56c-.42-1.13 3.56-.71 4.44-.55.16.03.61.98.48 1.08-.2.15-.82.54-1.08.58l-3.26.45zm-.67 3.28c-4.22-1.75.71 1.03-4.22-1.02-.3-.12-.96.47-1.31.53l-5.01.95c-.43.08-1.5-.07-1.64-.49-.19-.56.19-1.78.74-1.75l5.24.26c.36.02 1.21-.21 1.52-.28 1.04.39 2.64.26 3.78-.12l2.94.5-2.05 1.41zm53.18-105.39-.52-1.75c-.14-.46-1.58.2-2.13.15-3.12-.3-6.99-1.02-10.39.81-.96-.65-1.8-1.67-3.01-3.2-.93.18-2.69 1.09-3.98 1.88 0-.27.35-1.14-.01-1.27-.64-.22-1.95-.68-2.02-.24l-.2 1.32c-.05.3-1.04.33-1.23.26l.14-1.25c.04-.36-.77-.65-1.12-.73s-.55 1.21-.69 1.6c-.18.48-1.65.51-2.13.57l-.14 2.18 4.34.04c.96 0 2.62-.08 2.66 1.02.07 1.83.27 3.22 1.06 4.87l-2.25 1.12c.26.2.67.17 1.59.19l-.47 4.67.92.43.65-5.29 4.76.03-1.18 1.13 3.17-.34-1.58-.56c1.39-.32 2.2-.52 3.13-1l-2.09.12.32-.77c.09-.23-.25-.48-.57-.78l-1.57-1.48c-.51.27-1.81.67-2.11.59.18-1.99.26-2.87 1.19-4.54.44 1.08.67 1.88 1 3.12l.82-2.3c.09-.26 1.03.74 1.26.61l1.51-.82.14 5.53.87-.65.17-6.11h3.4c1.9.02 2.91-.09 4.28 1.56 1.55 1.87.2 6.05-1.16 6.96.69.65 1.21 1.56 1.28 3.38-.09.24.3.5 1.27.93l.64-7.98v-4.02zm-97.38-14.9.91-2.31h15.42c-.04-.86-1.08-2.5-1.67-2.13l-1.07.67c-.17.1-.86-1.34-.93-1.37-.01 0-.48.42-.61.42l-5.98.2-5.16.17c-.17.95-.21.21-.24-.2l-.12-1.53 11.87-.59c1.47-.07 3.26.33 4.91.46l-2.2-3.28-8.7.45c-2.36.12-4.46.14-6.72-.48-.42.39-1.44 1.53-2.04 1.9l-7.03 4.24c-1.62.98-10.22 1.9-11.58.2v1.37c0 .3-.7.82-.8.82l-1.04-.87c-.2-.17-.77.34-1.16.68 3.06 2.45-4.09.79-3.32 5.16l26.16.18c.59.07 1.09-.03 1.11-.38l.14-2.14 9.61-.02 1.55-2.43-8.35.08c-1.13.01-1.85.26-2.96.72zm-14.27 1.4c.03.48-1.16.62-1.69.63l-1.85.03c.24-1.15.59-2.62.87-3.41.06-.17 1.39.09 1.29.24s-.35.68-.38.86l-.16 1.12c-.03.2.63.45.76.29l1.07-1.3c-.02-.38.06.94.09 1.53zm92.1 124.97-1.58-1.27c-2.26.38-4.4.49-6.41.28l7.05-1.51c1-.05 3.05-.1 4.03.03l5.21.66c-.19-.63-.59-1.48-.95-2.19-.36-.13 1.58-.57 1.61-.17l.14 1.59 1.05-1.68c.83-1.32 2.49.14 2.32-.97l-.15-1.02c.59-.04 2.27.18 2.58-.34l1.18-2.01-1.92-1.47 3.02-.38c-.65-.69-1.52-.63-2.65-.45l-2.59-.07c-1 .19-1.64.27-2.31.31l-2.63.15c-.3.02-1.17.69-1.44.54l-1.13-.65c-1.69 2.14-4.34 1.33-6.54 1.34l-7.43.04c-.96 0-1.9.54-2.87 1.01-1.25.55-3.08.86-4.43 1.17l2.02 1.42c-2.06.9-2.42 1.01-4.1 2.04 1.01.22 1.93.29 2.33.21l2.89 2.39c.43.36 1.57.74 2.15.74h5.01c1.35.02 2.28.11 3.64.76l2.51-.27-.11 1.16c-.01.15.54.26.63.15l.47-.58c.79.21 1.52.19 2.4-.04 1.11-.29 2 .67 3.16-.64l-6.14-.29zm-29.42-54.64c-.83-1.42-.82-3.48-.11-5.31l-1.22-3.75c1.79.87 3.14 1.38 4.54 1.36-.82-.61-1.86-1.21-1.89-1.8s.32-1.72.52-2.4l.6-2c.09-.31.19-.86.19-1.12s-.64-.54-.83-.38l-.98.82c-.04-.66.28-1.76.73-1.73l2.03.13 1.76-3.72c.25-.53 1.14-1.72.82-2.15l-1.43-1.88 3.01-.13 3.3-4.09-2.13-2.15-4.62 6.46c-6.37 8.9-8.94 22.94-8.24 34.1.45 7.12 3.5 15.49 6.4 21.76.13.28.94.31 1.13.18.24-.16.66-.37.48-.52-.12-.1-.66-.67-.73-.81l-1.86-4.23c-.1-.23-1.13-.99-.87-1.04s1.15-.66 1.04-.9l-2.46-5.63c-.13-.29-.75-1.12-.91-1.39-.12-.2.49-.56.72-.55l.95.04c-.59-1.31-1.02-2.52-1.34-4.06-1.13-5.38-2.38-2.6-1.36-4.89.12-.28.73.09.93.4.32.47 1.65.38 2.1.23-4.56-2.52.6-3.76-3.37-8.62.68-.23 1.82-.33 3.07-.26zm-38.55-58.06 7.07.3c-.38-1.27-.67-2.15-1.03-2.98l-29.9-.24-10.37-.19-4.06-.07c-.55 0-1.25 1.99-.65 2.16 1.04.3 3.03.29 4.36.06 2.07-.36 4.05-.15 6.08-.04l10.07.53 10.65.29c.68.02 2.04-.48 2.52-.69 1.54.8 3.4.77 5.26.85zm6.3 2.12c-.22-.56-1.87-.75-2.53-.76l-20.19-.36c-4.14-.07-8.05-.25-12.16-.13l-1.58-.56-2.43 2.6c2.01-.12 3.8-.06 5.83.05l10.22.55 18.51.62 5.03.18c-.11-.39-.48-1.64-.7-2.2zm93.98 105.29c1.29-.14 2.73-.37 3.72-.55 1.08-.19 3.28 1.31 4.08.58 2.9-2.61 4.57-1.64 3.99-2.23-.18-.19-.46-.59-.69-.54l-1.03.21c-.25.04-.06-.67.06-.89l.77-1.41-2.31 1.24c-3.37-3.48-9.38-.15-13.51-.98-.6.76-1.81 2.16-2.26 2.48-.61-.85-1.03-1.9-1.38-1.68l-1.45.92 1.86.57c-1.26.79-2.11.63-4-.16l-.48 3.32c1.39.4 3.76.11 5.19-.16l1.23.65c.21.11.98-.77 1.23-.8l4.97-.56zm.01-1.76 1.2-.24c.15-.03.21-.56.06-.58l-1.34-.11c.1.17-.08-.16-.58-1.08l1.86-.2c.49-.05 1.05 1.01 1.42 1.32l2.99-.15c-1.89 1.97-3.96 2.1-5.61 1.05zm-86.25 20.48-.05-4.34c.22-.73.19-1.69-.39-.73l-1.47.67c-.16.07-.11-.41-.08-.6l.13-.97c-5.36 4.64-.23 1.82-4.89 5.44-.33-.25-1.09-.97-.91-1.3l.88-1.66c-.46-.06-1.6-.04-2.43.05-.2-.04-.75-.58-.88-.33l-.63 1.23c-.05 0-.86-.49-.76-.72l.56-1.16c.17-.36.39-1.63 0-1.66l-1.39-.12-1.68-.14c-.27-.02.08 1.05.21 1.29s.49.58.68.39l.81-.79.45 3.33c.2 1.46.09 2.86-.12 4.54l2-.5c.41-.1.92.61 1.28.87l.64-1.13c.07-.13.22-.13.32 0 .09.12.42.85.57.89l5.11 1.33c.24-.91.35-1.5.89-1.75s2.34-.41 2.33.1c-.01.33-.16 1.5.14 1.46l1.49-.19c.4-.05 1.41-.23 1.23-.46l-.66-.79c-.14-.17-.39.16-1.06.66l-.75-.79-.1-1.42c-.02-.23.69-.32 1.17-.47-.16-.12-.58-.37-.57-.59l.04-1.05zm-17.34-120.82-10.9-.25-3.45-.12-8.77-.16-4.97-.03c.66.89.8 1.07.56.74-1.13.58-1.47.78-1.43.55l.17-1.13c-2.07-.43-4.33-.64-6.5-.63l-4.52.03 2.68 1.64c2.25 1.38 6.67.74 7.97.81l4.94.26 6.91.02c2.08 0 4.35.11 6.34-.11 1.14-.13 1.56-.2 2.55-.1l7.27.72 6.48.3 5.38.15-1.51-2.2-9.22-.47zm-2.25-10.93c-.04-.15 0-1.04-.32-1.03-.41.01-1.5.11-1.78.24l-1.8.82c-.33.15-1.16-.88-1.56-.92l-4.64-.4c-.93-.08-2.27.04-3.33.18-6.27.85-3.89-1.21-6.86.55-.21.12.23.61.47.86 3.48-1.04 3.39 1.26 10.82 1.05.24 0 1.09-.68 1.29-.81.15-.1.21.57.32.95l11.9-.3c-.65-.55-1.35-.69-2.27-.9l.95-1.49-3.17 1.2zm-14.57 25.84c-.26.84-.18 1.14-.47 1.13-.43-.02-1.45-.06-1.44-.06l.95-1.12c.16-.19-.98-.47-1.27-.45-4.76.28-10.52.19-15.38-.41-.49-.06-1.8.05-1.92.41l-.67 2.04 10.97.16c1.11.02 2.17-.54 3.03-1.3 5.3 1.34 1.09 1.4 4.74 1.56 2.51.1 4.56.13 6.47-2.01l-5.01.06zm-.5-7.71-3 1.49c-.45-.66-.78-1.26-1.11-1.31l-1.11-.17c-2-.31-10.98-1.03-11.04 1.85l14.22.19c.42 0 1.36.53 1.55.23l.65-1.03 1.71.53c.29.09.97.66 1.24.53l1.08-.52 1.44.77c.22.12.59-.27.57-.52l-.1-1.42-6.11-.63zm28.99 24.63c0-1.36-.57-3.31-1-4.56l.14 32.41.19 4c.19 4.16-1.21 6.4.7 6.95l-.02-38.79zm-5.94-25.08 1.45-.91c.65.36 1.19.7 1.59.71s1.02-.34 1.05-.74c.05-.6-.49-1.71-.9-1.74l-8.07-.46c-5.92-.34-6.91 3.57-8.14-.11-1.1.05-2.94-.1-4.21-.35-.28.05-.89.61-1.13.44l-1.12-.78-.7 2.87 5.52-.05c2.17-.02 4.27.08 6.24.33l1.19-2.06.79 1.92c.39.22 1.6.91 1.58.9-.7 1.02-1.2 1.74-1.48 2.22s.8 1.75 1.19 2.36c.35.56 1.93-.95 1.84-1.35-.87-.07-1.46-.04-1.7-.37s-.07-1.42.18-1.97c.95-2.11 3.36-1.92 4.83-.86zm1.4 34.36-.48-7.19c.11-.08-.72.53-1.15.84-.29.21.32 1.03.33 1.42l.32 9.37.39 24.97c1.48-5.09.21-6.24.58-13.2.28-5.4.39-10.73.02-16.21zm38.77 90.18c.26 0 .72-1.21.69-1.48-.12-1.04-2.39-1.85-3.5-1.57-.08.71.04.96-.2.98-.33.03-.84.12-.88-.03l-.42-1.42-3.05 2.08-1.8-.68c-.4-.15-.06 1.25-.28 2.07 2.03 1.59 5.09 1.72 7.74 1.3-.49-.49-.95-.89-.74-.96.28-.1.83-.28 1.07-.28h1.36zm-38.08-146.9c-1.57-.46-3.87-.48-5.04.43l-1.1.86c-.15.11-.43-.68-.28-.79l.98-.69-8.07-.14-.88 2.53 16.78-.02c.27-3.29-4.44.88-6.16-1.49l3.77-.68zm-36.04 11.45-3.96-.18-9.75-.39c-5.06-.2-.37.79-5.65.2-.28-.03-.14 1.13-.07 1.45l5.89.33c4.19.24 8.19.16 12.21.07l-1.4-.57 2.73-.92zm37.56 51.05-.12-18.27c0-.44-.71-1.17-.97-1.26l.35 17.77.41 25.05.38-19.29-.04-4zm-40.22-36.57c-1.14-.12-2.36.11-3.36.35-.46-.14-1.04-.05-1.2.25-.21.39-.36 1.73 0 1.73l15.06-.08c-1.04-1.77-3.03-1.48-4.8-1.66l-5.71-.59zm40.24 2.27c-.05-.18-.72-.65-.83-.49l-.55.78c-.14.2-.69.67-.89.83-.13.1-.14-.45-.11-.61l.17-.88-5.59-.25-2.15 2.11c-1.03-.56-1.55-.66-1.46-.28l.41 1.63c.08.31 1.04-.52 1.35-.66l8.04-.33c.5-.02 1.34.26 2.32.57l-.72-2.43zm-39.96-8.41c-.68.03-2.23.61-2.36.54l.85-1.24c.1-.14-.54-.22-.7-.15l-.75.34-2.8 1.3c-.46.21-1.88-.59-1.84.77-.67-.05 18.38.44 15.58-1.93l-7.97.37zm35.37 41.87-.93-1.03.13 14.75-.06 10.72c1.84-1.29.57-2.79.62-4.24.27-6.58.32-13.66.24-20.21zm-42.4-14.68c.21.04.73-.67.54-.75l-1.43-.58c1.08-1.26 2.17-2.07 4.02-2.83l-1.38-2.16-.65 1.13-1.28.06c-.24.01-.57.95-.74 1.11l-4.19 4.07 4.25-.22.87.18zm48.22-20.22-1.13-2.55c-1.76-.5-5.05-.93-6.79-.9-.17 0-.98.76-.83.81l1.13.34c.36.11.07 1.01-.08 1.84l6.2-.1c.28 0 1.55.64 1.49.57zm-33.36 8.12-3.44-1.1-6.49 1.07c-.16.03-1.01.52-.84.56s.89.28 1.15.3l6.3.58c1.38.13 2.7-.41 3.32-1.42zm121.16 97.57c-.67-.19-1.64.16-2.33.53-.95.29-1.81.39-.44-.71h-5.52c-1.31 0-2.74.21-3.9.58l6.03.97c.9.14 2.94-.23 3.48.13l-.95 1.49c-.14.21.98.29 1.22.38l.92.36c.16.06.25-.58.11-.69l-.91-.7zm26.17-13.47 5.48.63-.68-3.64-2.49 2.51-4.6-1.36.35 1.33c.04.15-.59.38-.68.25l-.45-.72-2.33.38c2 2.28 3.69.42 5.41.62zm-123.81 3.85-.3-.83-2.09 1.11.69-1.83c-.51.11-1.77 1.03-1.93 1.68-.17.69.36 2.08.96 2.39.63.33 1.98-.12 2.79-.47l.12 1.03c.03.23 1.05 0 1.07-.24l.21-2.36c-.73-.21-1.45-.3-1.51-.49zm49.98-12.99.7.69c.87.21 1.4.25.48-.31l-6.34-8.92c.05 3.26 2.48 5.06 4.45 7.34l-.53 4.04c.37.06 1.58.19 1.51-.09l-.38-1.58c-.06-.24-.01-1.28.1-1.16zm-44.93-76.14.7-1.55c.09-.21.06-.76-.17-.74l-1.13.08-3.3.22 1.15 2.13 6.77.4-.64-2.48-3.37 1.95zm3.61-29.98-4.2.03-.94 2.63c2.15-.29 3.75-.22 5.97.12zm-35.11.14-2.46-.18 1.04.9c-2.24-.15-4.34-.52-6.09 1h10.19s-2.68-1.72-2.68-1.72zm28.54-18.12-.07-1.61-3.32.18c-1.06.06-2.71 1.04-3.78 2.12l5.73-.41c.42-.03 1.46.04 1.45-.28zm2 107.54-3.89-1.63c-.27-.11-1.43.05-1.38-.18l.31-1.37-2.59.8 1.02.66c.14.09.01.8-.05.97l-.28.85c-.06.2.58.64.72.48l.73-.83c.26-.3.85-.81 1.15-1.02.23-.16.88.52.78.78l-.52 1.36c1.58-.24 2.28-.29 3.98-.88zm-25.34-72.61c.95.29 2.46.67 3.44.84.66.11 1.47-.92 2.2-1.86-1.89-1.11-4.55-1.44-5.63 1.03zm29.12-25.01c-1.77.89-2.32 1.02-3.89 1.17l.16 1.45 5.82-.07-2.09-2.56zm133.2-6.02c-1.48-2.34.61-3.49-1.62-4.38l.24 3.37-3.41 1.62 1.86 1.05 2.94-1.66zm-180 40.3-3.93-.33-2.22 1.53c2.04.31 4.39.54 6.32.58-.14-1.48-.19-2.04-.17-1.78zm208.76 9.51c.27.05.78-.6.78-.87 0-.72.02-2.07-.48-2.33l-1.75-.91c.17 1.25.36 1.93-.04 2.04l-1.37.37c-.3.08.06 1.13.37 1.19l1.18.23 1.32.26zm-210.76-5.48c-2.22-.65-4.46-.83-6.81.37l4.9 1.11c.53.12 1.72-.83 1.91-1.47zm43.24 21.72c.12-.17.85.16.82.37l-.18 1.19c-.15 1.01-.49 1.6.98 2.12l-.5-6.59-.63 1.86c-.11.33-.96.44-1.09.41-.5-.69-.94-1.38-1.09-1.08-.14.27-.48 1.02-.36 1.27l.98 1.96 1.07-1.5zm154.99-9.99c.15-.05 0-.59-.15-.57s-.85.13-1 .1c-.68-.13.3-1.62 1.05-2.16l-1.98-2.03c.02 1.54.33 2.6-.26 2.87l-2.69 1.26c.64.11 1.81.06 2.83-.03-.02-.05.13.41.19.61s.93.28 1.14.22l.86-.27zm-17.86-73.72.08 2.51c-.49.58-.94 1.79-.29 1.83s1.24.05 1.68-.01l2.34-.34c-1.98-1.51-2.29-1.98-3.8-4zm-105.64 172.31c.16.12.82-.38.72-.56l-1.35-2.36c-1.56.63-2.71 1.27-4.16 2.48 1.82.26 2.76.08 3.91-.23zm131.01-109.32-2.78-1.34c-.45 1.44-.32 3.1.11 4.19l1.05-2.7c.55 1.45.9 2.51 1.76 2.69l-.15-2.83zm7.3-4.98c.05-1.03-2.18-1.6-3.54-1.13-.02.78.94 2.89 2.36 2.98.48.03 1.14-1.07 1.18-1.85zm-18.86-32.52-.51-1.89-2.52.54c1.62 2.23 3.26 3.16 5.72 3.5-.95-.92-1.79-1.53-2.69-2.15zm-30.13 123.4-9.96.66 5.99.59c1.65.08 3.22.39 3.97-1.25zm-61.19 11.33c-2.81.36-5.23.61-7.52-.8-.19-.11-.33 1.14-.12 1.2 1.17.31 3.68 1.13 4.87.89l3.74-.75-.98-.54zm-56.92-91.42-4.04-.53c-.68-.09-1.92.58-2.36 1.05l4.02.77c.55.11 1.77-.79 2.38-1.29zm156.22-33.71c-1.08-2.55-3.35-3.83-5.22-2.25l2.71 1.53c.82.47 1.87.77 2.51.72zm-159.44 60.97-.96.48c-.25.13.01.9.01 1.29l.03 4.25c0 1.16-.81 2.56 1.04 2.96-.33-3.23-.38-5.89-.13-8.99zm-25.84 15.32c-.66-.6-1.24-1-1.2-1.34l.17-1.44c-.96.3-1.64 1.39-1.63 2.48l-.44 1.19 2.07.86 1.04-1.75zm191.13-40.94c-.48-.15-1.52-.31-1.54-.59l-.08-1.3-2.11 1.79c1.89.04 2.81 1.11 4.17 3.13.33-.66.35-2.79-.45-3.04zm-182.9 7.57c-.18-.27.29-1.43 0-1.56l-1.03-.45c-.23-.1-.28.88-.27 1.05l.41 2.56 2.11 2.07c.29-1.02-.67-2.87-1.21-3.68zm157.84-21c.03.94-.14 1.55.16 1.57 5.83.32-1.12.87 4.54.88-1.32-1.89-3.19-2.54-4.69-2.45zm26.23-8.11 1.78-.31c.23.43-.43-.82-.62-1.19-.4-.76-2.54 1.26-2.55 1.24l.57 1.55c.14.38.99 1.18 1.39 1.14.32-.03.89-1.08.52-.8-.79-.64-1.44-1.57-1.09-1.63zm-169.91 111.64c-.2 1.37.58 3.7 2.84 3.37l-.64-3.16zm53.96 8.66 1.04 2.28c1.27.77 3.7-.65 3.59-2.08-2.26.79-2.55.57-4.63-.2zm-76.41-60.77c1.14 2.66 1.42 3.53 1.49 5.9l1.37-4.98-2.85-.93zm60.69-155.99-1.02 1.91c-.36.67-.29 1.59.16 3.04 3.47-6.07-1.7-1.31 2.71-5.3-.46-.22-1.63-.08-1.85.35zm-37.59 112.27-2.87.26.46 5.34 1.51-2.5-1.42-.7 2.33-2.4zm149.89-18.11c-1.87-1.14-3.06-.91-4.85-.31l1.45 2.15c.13.14 1.03-.6.96-.81s-.34-.91-.29-.78l2.74-.26zm-147.26 29.11-.95-.78c-.32.58-.52 1.5-.25 1.86.28.38 1.2 1.18 1.38 1.15l1.86-2.23c3-3.6-1.67.31-2.04 0zm126.54-26.21.24-1.66-1.84 3.48 1.73.67c.37.14 1.43-.79 1.33-1.12-.21-.36-1.53-.94-1.47-1.37zm-79.85 107.05 1.74-.29c.39-.06.74-1.43.7-1.48l-3.21 1.19c-.83.31-1.22 2.27-.94 3.59l1.71-3.02zm.92 6.59c1.56.54 2.73.82 4.13 1.11l.74.62c.13.11.55-.1.65-.24s-.13-1.73-.29-1.72l-5.22.23zm23.65-90.94c.04-1.09-.85-.68-1.13.11l4.6 12.32c.95-2.83-1.06-4.7-1.81-7.1l-1.67-5.33zm16.27 12.51c.11-.32-1.26-.46-1.55-.22s-.65 1.04-.38 1.29l.81.75-2.22 1.82c.63.39 2.03.3 2.21-.22l1.12-3.42zm-10.83 26.04-.94 9.05 2.05-5.85c.36-1.27.07-2.45-1.11-3.2zm94.51-35.13s-20.91-.43-29.87-.43-15.69.53-15.69.53-1.12-.25-1.96 1.71-.98 3.5-.98 3.5 1.96-2.52 2.94-2.94 2.94-.98 2.94-.98-1.96 2.24-2.66 4.06-1.12 6.44-1.12 6.44 1.82-5.32 3.36-6.72 3.5-2.94 3.5-2.94l3.5-.56h3.64s-2.8 1.26-4.2 4.2-3.64 8.68-3.64 8.68l-.98 5.6 5.32-11.63 4.62-4.48 3.78-1.96 4.76-.42s-2.24 2.24-3.36 4.34-2.8 3.92-4.34 8.26-3.92 10.65-4.34 13.59-2.24 18.63-2.24 18.63l-.28 5.74s2.8-19.19 4.76-25.07 5.32-14.43 7.14-18.07 4.06-4.48 4.48-4.62 3.64-2.1 3.64-2.1l2.38.7-4.48 4.06-2.8 8.96 3.22-7 5.74-5.46 4.06-1.54s-2.24 2.1-3.78 4.34-1.54 6.02-1.82 6.72-2.38.28-3.36 3.64-4.48 9.25-5.46 13.31-2.1 11.49-2.1 11.49l-.14 7.42s1.68-14.15 3.08-17.09 7-14.01 7-14.01 1.96-7.84 3.78-9.11 5.6-7.14 5.6-7.14l3.78.14s-3.5 2.52-5.04 9.11-2.52 15.97-2.52 15.97l6.86-21.43 2.24-3.22.75.05.27-2.28zm-96.88-113.3.09 3.93c1.13 1.25 2.71 2.75 4.44 4.12-1.27-2.67-1.11-5.1-1.12-7.98l-.02-5.78c-.02-4.16.26-5.43.49-6.08-1.42-.27-2.84-.52-4.28-.74.06.49.11.98.12 1.49zm22.72.67c1.17 3.97-1.17 4.7.16 12.28-1.79.91-1.51 2.71-1.1 4.65.3 1.38-1.14 4.47.04 5.64l5.46 5.43c-.97-2.23-.69-3.83-.7-5.99v-4.93c-.01-1.41.53-10.91.78-12.48.19-1.16 1.01-2.45.74-3.71l-.87-4.06c-.11-.53-.22-1.45-.24-2.3-1.01-.43-2.03-.83-3.05-1.23l-.13 3.04c-.06 1.43.1 2.71-1.1 3.66zm-112.81 15.61 4.32-2.13c.07.8-.05 1.34.19 1.5l1.21.78-.33 2.23 1.79-.27c-.76 2.05-3.62 3.93-3.58 4.1l.28 1.06c-4.08-.84-1.26 1.41-5.25 1.38-1.89 2.92-2.49 6.59-6.41 7l-3.04 2.29 3.25 1.03c.77.24 2.39-.87 3.2-1.16.29-.1 1.07.68.81.87l-1.07.78c-.34.24-1.55 1.07-1.22 1.32l1.52 1.19-1.87-.07c-4.62 3.86-2.92.39-5.25 2.57l2.6 1.15-2.93 3.12c-.18.2-1.56.26-1.45.5l.45.99c.07.16.51.07.83.07l12.31-.25c2.6-.05 4.92-.25 7.81-.13 6.05-1.65 4.86 1.27 7.5-1.45l2.21.95c.46.2 1.27-1.06 1.61-1.25l1.42.64c.29.13.85-.59 1.23-.86l4.8-3.47c.55.25 1.56.97 1.51 1.41l-.17 1.51c-.03.25.75.77.96.61l.99-.77 4.99-3.88 4.45-3.44 37.47-28.78c1.92-1.48 3.52-2.77 5.23-4.26l22.33 19.98 13.56 12.04 5.13 4.64c.12-4.06-4.03-4.35-5.85-6.25-2.1-2.19-4.02-4.22-6.16-6.2-2.91-2.71-5.8-4.92-8.44-7.98 3.07 1.94 5.51 4.07 8 6.4l5.81 5.42c3.78 3.53 3.08 2.27 7.46 6.76.33.34-.47 1.42-.77 1.69l3.2 3.2c.58-.47 1.65-1.12 2.01-.85l4.69 4.31c.49-.48 1.09-1.04.92-1.25-.11-.14-.48-.57-.63-.71l-5.64-5.15-3.91-3.48-4.86-4.47-20.85-18.44-5.46-4.87-6.77-6.56c-1.2-1.17-2.72-2.26-3.91-3.06l.89-.92s-1.79-1.36-2.13-1.13l-1.12.76-1.72-1.66 1.6-.95c.23-.14-.17-.8-.13-1.06l.23-1.56c.05-.36-1.06-1.02-1.3-.79-.81.49-2.21.38-2.43 1.04-.94 2.9.97 3.91-.29 5.35-1.17 1.34-8.06 1.18-9.61 1.17-.61 0-2.17 1.01-2.49.51l-1.25-1.94.35 2.4-6.58.43c-.48.03-1.43.04-1.66-.27l-.79-1.07c-.32.43-.71 1.14-1.01 1.19l-1.21.21c-2.02 2.24-3.67.02-7.2 1.92l-2.67-1.36c-1.55 1.66-3.47 2.11-5.78 2.1l5.12 1.03 2.66-1.22-1.09 1.13c-.15.16-.06.25.23.5l1 .89-4.82.37-4.44.52-14.08 1.48-16.98 1.44c-2.37 1.76-4.67 3.61-6.9 5.54 1.08.36 2.6.99 3.37 1.91z" fill="#624e41"/><circle cx="116.84" cy="116.84" fill="none" r="115.34" stroke="#fff" stroke-miterlimit="10" stroke-width="3"/><g fill="#fbf7f1"><path d="m273.15 109.85 1.6-78.98 3.84.32-1.6 78.66c-.11 5.55.83 9.53 2.8 11.94 1.97 2.4 5.58 3.6 10.81 3.6.21 0 .32.32.32.96s-.11.96-.32.96c-2.35 0-4.78-.05-7.29-.16-2.51-.1-5.26-.16-8.25-.16-2.78 0-5.39.06-7.85.16-2.46.11-4.75.16-6.89.16-.22 0-.32-.32-.32-.96s.1-.96.32-.96c4.49 0 7.71-1.2 9.69-3.6 1.97-2.4 3.02-6.38 3.12-11.94zm111.02 15.54c.32 0 .48.32.48.96s-.16.96-.48.96c-2.56 0-5.47-.05-8.73-.16-3.26-.1-6.65-.16-10.17-.16s-6.6.06-9.53.16c-2.94.11-5.58.16-7.93.16-.22 0-.32-.32-.32-.96s.1-.96.32-.96c5.34 0 8.76-.69 10.25-2.08s2.14-4.38 1.92-8.97l-3.04-77.38 5.29-7.37-41.65 96.61c-.11.43-.54.64-1.28.64s-1.23-.21-1.44-.64l-40.21-85.71c-3.63-7.58-9.03-11.38-16.18-11.38-.22 0-.32-.32-.32-.96s.1-.96.32-.96c1.71 0 3.55.05 5.53.16s3.61.16 4.89.16c1.71 0 3.28-.05 4.73-.16 1.44-.11 2.54-.16 3.28-.16 1.49 0 2.67.48 3.52 1.44s2.14 3.26 3.84 6.89l36.53 76.9-4.97 8.33 39.09-89.56c.53-1.28 1.23-2.27 2.08-2.96s1.76-1.04 2.72-1.04c.64 0 1.49.05 2.56.16s2.35.16 3.84.16c2.88 0 5.23-.05 7.05-.16 1.81-.11 3.74-.16 5.77-.16.21 0 .32.32.32.96s-.11.96-.32.96c-5.13 0-8.92.75-11.37 2.24-2.46 1.5-3.58 4.43-3.36 8.81l3.2 74.18c.11 3.1.48 5.45 1.12 7.05s1.95 2.67 3.93 3.2c1.98.54 4.89.8 8.73.8z"/><path d="m390.68 127.31c-.22 0-.32-.32-.32-.96s.1-.96.32-.96c4.17 0 6.91-.72 8.25-2.16 1.33-1.44 2-4.41 2-8.89v-29.96c0-3.74-.38-6.49-1.12-8.25-.75-1.76-2.14-2.64-4.17-2.64-.86 0-1.87.19-3.04.56-1.18.38-2.56.94-4.17 1.68-.43.11-.78-.13-1.04-.72-.27-.59-.24-.99.08-1.2l20.83-9.61c.32-.1.53-.16.64-.16.21 0 .48.14.8.4.32.27.48.56.48.88 0 .86-.05 2.94-.16 6.25s-.16 7.53-.16 12.66v30.12c0 4.49.61 7.45 1.84 8.89s3.98 2.16 8.25 2.16c.32 0 .48.32.48.96s-.16.96-.48.96c-1.92 0-4.14-.05-6.65-.16-2.51-.1-5.15-.16-7.93-.16s-5.42.06-7.93.16c-2.51.11-4.78.16-6.81.16zm13.45-82.03c-2.14 0-3.85-.59-5.13-1.76s-1.92-2.83-1.92-4.97.64-3.79 1.92-4.97c1.28-1.17 2.99-1.76 5.13-1.76s3.79.59 4.97 1.76c1.17 1.18 1.76 2.83 1.76 4.97 0 4.49-2.24 6.73-6.73 6.73z"/><path d="m425.6 127.31c-.32 0-.48-.32-.48-.96s.16-.96.48-.96c4.17 0 6.89-.72 8.17-2.16s1.92-4.41 1.92-8.89v-82.84c0-3.74-.38-6.49-1.12-8.25-.75-1.76-2.08-2.64-4.01-2.64-1.6 0-4.06.75-7.37 2.24-.32.22-.64 0-.96-.64s-.27-1.01.16-1.12l20.51-9.77c.21-.1.48-.16.8-.16.21 0 .51.14.88.4.37.27.56.56.56.88v101.89c0 4.49.59 7.45 1.76 8.89s3.9 2.16 8.17 2.16c.32 0 .48.32.48.96s-.16.96-.48.96c-1.82 0-4.01-.05-6.57-.16-2.56-.1-5.29-.16-8.17-.16s-5.47.06-8.09.16c-2.62.11-4.83.16-6.65.16z"/><path d="m460.56 127.31c-.32 0-.48-.32-.48-.96s.16-.96.48-.96c4.17 0 6.89-.72 8.17-2.16s1.92-4.41 1.92-8.89v-82.84c0-3.74-.38-6.49-1.12-8.25-.75-1.76-2.08-2.64-4.01-2.64-1.6 0-4.06.75-7.37 2.24-.32.22-.64 0-.96-.64s-.27-1.01.16-1.12l20.51-9.77c.21-.1.48-.16.8-.16.21 0 .51.14.88.4.37.27.56.56.56.88v101.89c0 4.49.59 7.45 1.76 8.89s3.9 2.16 8.17 2.16c.32 0 .48.32.48.96s-.16.96-.48.96c-1.82 0-4.01-.05-6.57-.16-2.56-.1-5.29-.16-8.17-.16s-5.47.06-8.09.16c-2.62.11-4.83.16-6.65.16z"/><path d="m590.49 25.41c4.49 0 8.46.22 11.93.64 3.47.43 6.7 1.1 9.69 2 2.99.91 6.03 2.16 9.13 3.77.75.43 1.2.78 1.36 1.04.16.27.29 1.1.4 2.48l1.92 19.07c0 .22-.27.4-.8.56-.54.16-.91.03-1.12-.4-2.46-8.86-6.38-15.54-11.78-20.03-5.39-4.49-12.47-6.73-21.23-6.73s-17.01 1.98-23.79 5.93-12.07 9.56-15.86 16.82-5.69 15.81-5.69 25.63c0 7.05 1.2 13.65 3.61 19.79 2.4 6.14 5.74 11.53 10.01 16.18s9.16 8.25 14.66 10.81 11.35 3.84 17.54 3.84c8.86 0 16.02-2.16 21.47-6.49s9.56-10.81 12.34-19.47c.1-.32.45-.43 1.04-.32s.88.27.88.48l-1.6 17.62c-.11 1.28-.27 2.08-.48 2.4s-.64.7-1.28 1.12c-5.55 2.78-10.79 4.67-15.7 5.69-4.91 1.01-10.47 1.52-16.66 1.52-11.32 0-21.34-2.22-30.04-6.65-8.71-4.43-15.54-10.63-20.51-18.58-4.97-7.96-7.45-17.17-7.45-27.64 0-7.69 1.44-14.66 4.33-20.91 2.88-6.25 6.94-11.62 12.18-16.1 5.23-4.49 11.37-7.96 18.42-10.41 7.05-2.46 14.74-3.69 23.07-3.69z"/><path d="m632.11 127.31c-.32 0-.48-.32-.48-.96s.16-.96.48-.96c4.17 0 6.86-.72 8.09-2.16s1.84-4.41 1.84-8.89v-31.72c0-3.52-.4-6.11-1.2-7.77-.8-1.65-2.27-2.48-4.41-2.48-1.07 0-2.32.22-3.76.64-1.44.43-3.07 1.02-4.89 1.76-.43.11-.78-.11-1.04-.64-.27-.53-.19-.91.24-1.12l18.58-8.81c.32-.1.64-.16.96-.16.75 0 1.71 1.12 2.88 3.36s1.76 5.5 1.76 9.77v37.17c0 2.99.37 5.31 1.12 6.97s2.24 2.75 4.49 3.28c2.24.54 5.55.8 9.93.8.43 0 .64.32.64.96s-.21.96-.64.96c-2.56 0-5.58-.05-9.05-.16-3.47-.1-7.13-.16-10.97-.16-2.78 0-5.45.06-8.01.16-2.56.11-4.75.16-6.57.16zm15.7-43.42-.64-1.76c3.95-4.81 7.21-8.52 9.77-11.13 2.56-2.62 4.78-4.43 6.65-5.45 1.87-1.01 3.66-1.52 5.37-1.52 2.24 0 4.46.64 6.65 1.92s3.28 2.83 3.28 4.65c0 1.39-.46 2.56-1.36 3.52-.91.96-2.22 1.44-3.92 1.44-1.39 0-2.56-.43-3.52-1.28s-1.98-1.65-3.04-2.4c-1.07-.75-2.46-1.12-4.17-1.12-.96 0-1.98.27-3.04.8-1.07.54-2.51 1.74-4.33 3.6-1.82 1.87-4.38 4.78-7.69 8.73z"/><path d="m707.79 129.23c-6.41 0-11.8-1.47-16.18-4.41s-7.66-6.75-9.85-11.46c-2.19-4.7-3.28-9.67-3.28-14.9 0-6.51 1.49-12.36 4.49-17.54 2.99-5.18 7.07-9.29 12.26-12.34 5.18-3.04 10.87-4.57 17.06-4.57s10.71 1.6 13.86 4.81c3.15 3.2 4.73 7.69 4.73 13.46 0 1.39-.13 2.43-.4 3.12-.27.7-.78 1.04-1.52 1.04h-8.97c.43-6.51-.54-11.35-2.88-14.5-2.35-3.15-5.71-4.73-10.09-4.73-5.66 0-10.07 2.24-13.22 6.73s-4.73 10.63-4.73 18.42c0 6.09.96 11.48 2.88 16.18s4.75 8.39 8.49 11.05c3.74 2.67 8.28 4 13.62 4 3.63 0 6.62-.53 8.97-1.6s4.7-2.29 7.05-3.69c.21-.21.51-.08.88.4s.45.88.24 1.2c-3.74 3.31-7.56 5.69-11.46 7.13s-7.88 2.16-11.93 2.16zm-21.62-42.61-.16-2.08 36.37-.64v2.56z"/><path d="m764.67 129.23c-6.41 0-11.8-1.47-16.18-4.41s-7.66-6.75-9.85-11.46c-2.19-4.7-3.28-9.67-3.28-14.9 0-6.51 1.49-12.36 4.49-17.54 2.99-5.18 7.07-9.29 12.26-12.34 5.18-3.04 10.87-4.57 17.06-4.57s10.71 1.6 13.86 4.81c3.15 3.2 4.73 7.69 4.73 13.46 0 1.39-.13 2.43-.4 3.12-.27.7-.78 1.04-1.52 1.04h-8.97c.43-6.51-.54-11.35-2.88-14.5-2.35-3.15-5.71-4.73-10.09-4.73-5.66 0-10.07 2.24-13.22 6.73s-4.73 10.63-4.73 18.42c0 6.09.96 11.48 2.88 16.18s4.75 8.39 8.49 11.05c3.74 2.67 8.28 4 13.62 4 3.63 0 6.62-.53 8.97-1.6s4.7-2.29 7.05-3.69c.21-.21.51-.08.88.4s.45.88.24 1.2c-3.74 3.31-7.56 5.69-11.46 7.13s-7.88 2.16-11.93 2.16zm-21.63-42.61-.16-2.08 36.37-.64v2.56z"/><path d="m791.42 127.31c-.32 0-.48-.32-.48-.96s.16-.96.48-.96c4.17 0 6.89-.72 8.17-2.16s1.92-4.41 1.92-8.89v-82.84c0-3.74-.38-6.49-1.12-8.25-.75-1.76-2.08-2.64-4.01-2.64-1.6 0-4.06.75-7.37 2.24-.43.22-.78 0-1.04-.64-.27-.64-.19-1.01.24-1.12l20.03-9.77c.32-.1.59-.16.8-.16.32 0 .64.14.96.4.32.27.48.56.48.88v101.89c0 4.49.64 7.45 1.92 8.89s4.01 2.16 8.17 2.16c.32 0 .48.32.48.96s-.16.96-.48.96c-1.92 0-4.11-.05-6.57-.16-2.46-.1-5.13-.16-8.01-.16s-5.45.06-8.01.16c-2.56.11-4.75.16-6.57.16zm16.18-26.76-.64-1.92 24.99-20.19c4.17-3.31 5.85-5.98 5.05-8.01s-3.82-3.04-9.05-3.04c-.32 0-.48-.32-.48-.96s.16-.96.48-.96c2.56 0 5.15.05 7.77.16s6.11.16 10.49.16c4.06 0 7.29-.05 9.69-.16s4.67-.16 6.81-.16c.32 0 .48.32.48.96s-.16.96-.48.96c-2.46 0-5.18.4-8.17 1.2s-6.11 2.06-9.37 3.76c-3.26 1.71-6.6 3.9-10.01 6.57zm24.03 26.76c-.21 0-.32-.32-.32-.96s.1-.96.32-.96c3.85 0 6.3-.51 7.37-1.52s.8-2.7-.8-5.05l-20.35-27.72 7.53-5.45 20.83 28.68c2.88 4.17 5.9 7.05 9.05 8.65s6.27 2.4 9.37 2.4c.32 0 .48.32.48.96s-.16.96-.48.96c-1.92 0-4.11-.05-6.57-.16-2.46-.1-5.13-.16-8.01-.16-4.06 0-7.53.06-10.41.16-2.88.11-5.56.16-8.01.16z"/><path d="m284.05 179.42.99-1.62c4.13 0 7.7.66 10.72 1.97 3.02 1.32 5.37 3.13 7.04 5.43s2.51 4.98 2.51 8.03-.9 5.92-2.69 8.43-4.26 4.5-7.4 5.97-6.68 2.2-10.63 2.2c-1.61 0-3.66-.09-6.15-.27-2.48-.18-4.74-.27-6.77-.27-2.15 0-4.2.03-6.15.09-1.94.06-3.69.09-5.25.09-.18 0-.27-.18-.27-.54s.09-.54.27-.54c1.67 0 2.97-.15 3.9-.45s1.58-.9 1.97-1.79c.39-.9.58-2.21.58-3.95v-41.54c0-1.73-.18-3.04-.54-3.9-.36-.87-1-1.46-1.93-1.79s-2.23-.49-3.9-.49c-.12 0-.18-.18-.18-.54s.06-.54.18-.54c1.55 0 3.29.04 5.2.13s3.95.13 6.1.13c1.73 0 3.53-.09 5.38-.27s3.74-.27 5.65-.27c3.59 0 6.65.43 9.2 1.3 2.54.87 4.5 2.15 5.88 3.86 1.38 1.7 2.06 3.84 2.06 6.41 0 3.29-1.32 6.3-3.95 9.02s-6.58 4.62-11.84 5.7zm-2.69-24.31c-1.14 0-2.05.18-2.74.54s-1.17.94-1.44 1.75-.4 1.96-.4 3.45v17.58l-3.32-.63c1.97.06 3.59.11 4.84.13 1.26.03 1.94.04 2.06.04 3.23 0 5.65-1.21 7.27-3.63 1.61-2.42 2.42-5.37 2.42-8.84 0-2.27-.34-4.19-1.03-5.74s-1.68-2.72-2.96-3.5c-1.29-.78-2.86-1.17-4.71-1.17zm1.71 52.48c4.13 0 7.12-1.06 8.97-3.19 1.85-2.12 2.78-5.13 2.78-9.02 0-4.43-1.06-8.03-3.18-10.81s-5.52-4.17-10.18-4.17c-.6 0-1.62.02-3.05.04-1.44.03-2.96.2-4.58.49l2.96-1.08v22.34c0 1.2.13 2.2.4 3s.85 1.41 1.75 1.79c.9.39 2.27.58 4.13.58z"/><path d="m425.21 208.4c.3 0 .45.18.45.54s-.15.54-.45.54c-1.79 0-3.66-.06-5.61-.18-1.94-.12-3.81-.18-5.61-.18-2.03 0-3.8.06-5.29.18-1.5.12-3.17.18-5.02.18-.24 0-.36-.18-.36-.54s.12-.54.36-.54c2.45 0 3.87-.49 4.26-1.48s-.17-2.95-1.66-5.88l-18.21-35.98 4.4-7.72-17.85 39.39c-1.62 3.59-1.65 6.43-.09 8.52 1.55 2.09 4.01 3.14 7.36 3.14.3 0 .45.18.45.54s-.15.54-.45.54c-1.79 0-3.44-.06-4.93-.18-1.5-.12-3.38-.18-5.65-.18s-4.2.06-5.61.18-3.13.18-5.16.18c-.24 0-.36-.18-.36-.54s.12-.54.36-.54c1.61 0 3-.34 4.17-1.03s2.33-1.94 3.5-3.77c1.17-1.82 2.5-4.41 3.99-7.76l19.47-42.79c.06-.18.33-.28.81-.31s.75.08.81.31l22.43 44.14c1.44 2.81 2.68 5.04 3.72 6.68 1.04 1.65 2.03 2.81 2.96 3.5s1.87 1.03 2.83 1.03zm-48.98-19.47 1.35-2.51h25.84l.63 2.51h-27.81z"/><path d="m490.3 202.21v-41.54c0-1.73-.15-3.04-.45-3.9-.3-.87-.91-1.46-1.84-1.79s-2.29-.49-4.08-.49c-.18 0-.27-.18-.27-.54s.09-.54.27-.54c1.55 0 3.29.04 5.2.13s3.95.13 6.1.13c2.27 0 4.37-.04 6.28-.13s3.62-.13 5.11-.13c.18 0 .27.18.27.54s-.09.54-.27.54c-1.79 0-3.14.18-4.04.54s-1.51.99-1.84 1.88c-.33.9-.49 2.21-.49 3.95v41.36c0 1.74.15 3.05.45 3.95s.9 1.5 1.79 1.79c.9.3 2.27.45 4.13.45.24 0 .36.18.36.54s-.12.54-.36.54c-1.56 0-3.28-.03-5.16-.09s-3.96-.09-6.24-.09c-2.15 0-4.22.03-6.19.09s-3.74.09-5.29.09c-.12 0-.18-.18-.18-.54s.06-.54.18-.54c1.85 0 3.24-.15 4.17-.45s1.55-.9 1.88-1.79c.33-.9.49-2.21.49-3.95zm3.68-15.88 23.15-23.69c2.21-2.21 3.04-4.13 2.47-5.74-.57-1.62-2.35-2.42-5.34-2.42-.18 0-.27-.18-.27-.54s.09-.54.27-.54c1.61 0 3.26.04 4.93.13s3.89.13 6.64.13 5.14-.04 6.82-.13c1.67-.09 3.29-.13 4.84-.13.18 0 .27.18.27.54s-.09.54-.27.54c-2.75 0-5.77.79-9.06 2.38-3.29 1.58-6.28 3.69-8.97 6.33l-23.06 23.42-2.42-.27zm20 10.14-12.29-16.6 7.18-6.91 13.73 18.48c2.33 3.29 4.31 6 5.92 8.12s2.97 3.8 4.08 5.02c1.11 1.23 2.08 2.11 2.92 2.65s1.66.87 2.47.99 1.69.18 2.65.18c.18 0 .27.18.27.54s-.09.54-.27.54h-10.05c-.9 0-1.68.03-2.33.09-.66.06-1.23.09-1.7.09-.78 0-1.47-.15-2.06-.45-.6-.3-1.3-.9-2.11-1.79s-1.87-2.21-3.19-3.95c-1.32-1.73-3.05-4.07-5.2-7z"/><path d="m638.89 209.48h-39.65c-.18 0-.27-.18-.27-.54s.09-.54.27-.54c1.85 0 3.23-.15 4.13-.45s1.49-.9 1.79-1.79c.3-.9.45-2.21.45-3.95v-41.54c0-1.73-.15-3.04-.45-3.9-.3-.87-.9-1.46-1.79-1.79-.9-.33-2.27-.49-4.13-.49-.18 0-.27-.18-.27-.54s.09-.54.27-.54h38.04c.6 0 .9.27.9.81l.18 11.93c0 .12-.15.21-.45.27s-.51 0-.63-.18c-.96-3.53-2.57-6.11-4.84-7.76-2.27-1.64-5.26-2.47-8.97-2.47h-2.69c-1.2 0-2.18.17-2.96.49-.78.33-1.35.85-1.71 1.57s-.54 1.62-.54 2.69v41.09c0 1.14.15 2.09.45 2.87s.75 1.35 1.35 1.7c.6.36 1.38.54 2.33.54h2.96c4.67 0 8.4-.96 11.21-2.87s4.87-4.87 6.19-8.88c.06-.18.25-.22.58-.13s.49.2.49.31c-.24 1.74-.45 3.78-.63 6.15-.18 2.36-.27 4.56-.27 6.59 0 .9-.45 1.35-1.35 1.35zm-5.02-20.01c0-2.45-.93-4.38-2.78-5.79s-4.58-2.11-8.16-2.11h-12.11v-2.51h12.2c3.53 0 6.2-.61 8.03-1.84 1.82-1.23 2.74-2.88 2.74-4.98 0-.18.16-.27.49-.27s.49.09.49.27c0 1.97-.02 3.51-.04 4.62-.03 1.11-.04 2.26-.04 3.45 0 1.5.04 2.96.13 4.4s.13 3.02.13 4.75c0 .12-.18.18-.54.18s-.54-.06-.54-.18z"/><path d="m725.83 153.14c5.5 0 9.73 1 12.69 3.01 2.96 2 4.44 4.8 4.44 8.39s-.99 6.65-2.96 9.38c-1.97 2.72-4.5 4.83-7.58 6.33s-6.33 2.24-9.73 2.24h-2.56c-.87 0-1.66-.03-2.38-.09v19.83c0 1.74.15 3.05.45 3.95s.9 1.5 1.79 1.79c.9.3 2.27.45 4.13.45.12 0 .18.18.18.54s-.06.54-.18.54c-1.56 0-3.29-.03-5.2-.09-1.92-.06-4.01-.09-6.28-.09-2.15 0-4.2.03-6.15.09-1.94.06-3.69.09-5.25.09-.18 0-.27-.18-.27-.54s.09-.54.27-.54c1.85 0 3.23-.15 4.13-.45s1.51-.9 1.84-1.79c.33-.9.49-2.21.49-3.95v-41.54c0-1.73-.15-3.04-.45-3.9-.3-.87-.9-1.46-1.79-1.79-.9-.33-2.27-.49-4.13-.49-.12 0-.18-.18-.18-.54s.06-.54.18-.54c1.55 0 3.29.04 5.2.13s3.95.13 6.1.13c1.97 0 4.14-.09 6.5-.27s4.59-.27 6.68-.27zm6.91 14.8c0-3.53-.36-6.22-1.08-8.08-.72-1.85-1.7-3.12-2.96-3.81s-2.69-1.03-4.31-1.03c-2.39 0-4.1.45-5.11 1.35-1.02.9-1.52 2.39-1.52 4.49v19.02c.84.12 1.73.21 2.69.27s1.79.09 2.51.09c3.53 0 6.04-.97 7.54-2.92 1.49-1.94 2.24-5.07 2.24-9.38zm12.38 41.54c-.9 0-2.35-1.12-4.35-3.36s-4.41-5.49-7.22-9.73c-2.81-4.25-5.98-9.33-9.51-15.25l8.25-2.51c4.79 7.24 8.87 13.04 12.25 17.41s6.38 7.52 9.02 9.46c2.63 1.94 5.14 2.92 7.54 2.92.12 0 .18.18.18.54s-.06.54-.18.54h-15.97z"/><path d="m832.3 184.9-13.64-21.17c-2.39-3.71-4.29-6.17-5.7-7.4s-2.59-1.84-3.54-1.84c-.18 0-.27-.18-.27-.54s.09-.54.27-.54c.9 0 1.82.04 2.78.13s1.88.13 2.78.13c1.67 0 3.47-.01 5.38-.04s3.72-.07 5.43-.13 3.1-.09 4.17-.09c.12 0 .18.18.18.54s-.06.54-.18.54c-1.74 0-2.77.6-3.09 1.79-.33 1.2.04 2.6 1.12 4.22l12.92 20.37-8.61 4.04zm-.54-3.23 9.96-.81v21.35c0 1.74.15 3.05.45 3.95s.9 1.5 1.79 1.79c.9.3 2.27.45 4.13.45.18 0 .27.18.27.54s-.09.54-.27.54c-1.56 0-3.27-.03-5.16-.09-1.88-.06-3.96-.09-6.23-.09-2.15 0-4.22.03-6.19.09s-3.74.09-5.29.09c-.12 0-.18-.18-.18-.54s.06-.54.18-.54c1.85 0 3.24-.15 4.17-.45s1.55-.9 1.88-1.79c.33-.9.49-2.21.49-3.95zm5.75 2.87 11.04-18.75c1.97-3.35 2.74-6.07 2.29-8.16s-2.08-3.14-4.89-3.14c-.18 0-.27-.18-.27-.54s.09-.54.27-.54c1.91 0 3.71.04 5.38.13s3.92.13 6.73.13c1.5 0 2.71-.04 3.63-.13.93-.09 2.05-.13 3.36-.13.12 0 .18.18.18.54s-.06.54-.18.54c-1.2 0-2.63.52-4.31 1.57-1.67 1.05-3.35 2.47-5.02 4.26-1.68 1.79-3.23 3.89-4.67 6.28l-11.66 19.47z"/></g><g fill="#c16039"><path d="m331.56 174.1h9.53v9.53h-9.53z" transform="matrix(.70710678 .70710678 -.70710678 .70710678 224.98 -185.43)"/><path d="m446.19 174.1h9.53v9.53h-9.53z" transform="matrix(.70710678 .70710678 -.70710678 .70710678 258.55 -266.48)"/><path d="m559.68 174.1h9.53v9.53h-9.53z" transform="matrix(.70710678 .70710678 -.70710678 .70710678 291.8 -346.74)"/><path d="m671.84 174.1h9.53v9.53h-9.53z" transform="matrix(.70710678 .70710678 -.70710678 .70710678 324.65 -426.04)"/><path d="m781.36 174.1h9.53v9.53h-9.53z" transform="matrix(.70710678 .70710678 -.70710678 .70710678 356.72 -503.48)"/></g></svg>